HIERARCHY
ROOT Hips
{
    OFFSET 0.000000 0.000000 0.000000
    CHANNELS 6 Xposition Yposition Zposition Zrotation Xrotation Yrotation
    JOINT Spine
    {
        OFFSET -0.000000 7.236184 0.000000
        CHANNELS 3 Zrotation Xrotation Yrotation
        JOINT Spine1
        {
            OFFSET -0.000000 20.420147 0.000000
            CHANNELS 3 Zrotation Xrotation Yrotation
            JOINT Neck
            {
                OFFSET -0.000000 20.336288 1.848754
                CHANNELS 3 Zrotation Xrotation Yrotation
                JOINT Head
                {
                    OFFSET -0.000000 12.354461 -1.764923
                    CHANNELS 3 Zrotation Xrotation Yrotation
                    End Site
                    {
                        OFFSET -0.000000 22.061537 0.000000
                    }
                }
            }
            JOINT LeftShoulder
            {
                OFFSET 3.573296 18.396038 -0.314103
                CHANNELS 3 Zrotation Xrotation Yrotation
                JOINT LeftArm
                {
                    OFFSET 10.880760 0.000000 0.000000
                    CHANNELS 3 Zrotation Xrotation Yrotation
                    JOINT LeftForeArm
                    {
                        OFFSET 27.185530 0.000000 0.000000
                        CHANNELS 3 Zrotation Xrotation Yrotation
                        JOINT LeftHand
                        {
                            OFFSET 27.825975 0.000000 0.000000
                            CHANNELS 3 Zrotation Xrotation Yrotation
                            End Site
                            {
                                OFFSET 13.236923 0.000000 0.000000
                            }
                        }
                    }
                }
            }
            JOINT RightShoulder
            {
                OFFSET -3.474926 18.396038 -0.314103
                CHANNELS 3 Zrotation Xrotation Yrotation
                JOINT RightArm
                {
                    OFFSET -10.880760 0.000000 0.000000
                    CHANNELS 3 Zrotation Xrotation Yrotation
                    JOINT RightForeArm
                    {
                        OFFSET -27.185530 0.000000 0.000000
                        CHANNELS 3 Zrotation Xrotation Yrotation
                        JOINT RightHand
                        {
                            OFFSET -27.825975 0.000000 0.000000
                            CHANNELS 3 Zrotation Xrotation Yrotation
                            End Site
                            {
                                OFFSET -13.236923 0.000000 0.000000
                            }
                        }
                    }
                }
            }
        }
    }
    JOINT LeftUpLeg
    {
        OFFSET 8.824615 0.000000 0.000000
        CHANNELS 3 Zrotation Xrotation Yrotation
        JOINT LeftLeg
        {
            OFFSET -0.000000 -35.111282 0.000000
            CHANNELS 3 Zrotation Xrotation Yrotation
            JOINT LeftFoot
            {
                OFFSET -0.000000 -42.324711 0.000000
                CHANNELS 3 Zrotation Xrotation Yrotation
                JOINT LeftToeBase
                {
                    OFFSET -0.000000 -5.735999 13.236923
                    CHANNELS 3 Zrotation Xrotation Yrotation
                    End Site
                    {
                        OFFSET -0.000000 0.000000 3.529846
                    }
                }
            }
        }
    }
    JOINT RightUpLeg
    {
        OFFSET -8.824615 0.000000 0.000000
        CHANNELS 3 Zrotation Xrotation Yrotation
        JOINT RightLeg
        {
            OFFSET -0.000000 -35.111282 0.000000
            CHANNELS 3 Zrotation Xrotation Yrotation
            JOINT RightFoot
            {
                OFFSET -0.000000 -42.324711 0.000000
                CHANNELS 3 Zrotation Xrotation Yrotation
                JOINT RightToeBase
                {
                    OFFSET -0.000000 -5.735999 13.236923
                    CHANNELS 3 Zrotation Xrotation Yrotation
                    End Site
                    {
                        OFFSET -0.000000 0.000000 3.529846
                    }
                }
            }
        }
    }
}
MOTION
Frames:    5
Frame Time:    0.008333
-1.416867    81.705719    94.650940    -0.169437    -4.190808    -177.953232    -3.142210    -13.399317    0.349346    -1.862584    3.641865    0.777780    4.306077    8.217252    -5.387239    5.823153    3.291473    -5.265870    1.050661    18.700554    -2.953444    -46.877483    46.209644    -36.125103    -2.625605    -2.687407    -16.629654    17.977728    -2.609464    2.918875    0.387789    7.320902    -4.793570    45.643990    -22.576176    22.030735    -45.554066    -38.465340    87.895172    -34.421364    8.781220    -4.359673    3.546644    -0.926556    1.615109    -2.616552    6.070214    1.289057    -0.849425    -8.240192    -8.313229    0.286783    0.338559    -0.317695    -2.852075    1.094549    -0.463339    12.619379    9.917359    -5.221743    0.000000    0.000000    0.000000    0.000000    0.000000    0.000000    
-1.424494    81.708839    94.650169    -0.155651    -4.179231    -177.905655    -3.125203    -13.379472    0.347388    -1.878486    3.627111    0.773476    4.293983    8.205114    -5.387992    5.843416    3.294576    -5.264086    1.042791    18.692953    -2.940861    -46.872723    46.219364    -36.113564    -2.630637    -2.682414    -16.630949    17.974606    -2.605733    2.916247    0.380611    7.319091    -4.783457    45.628361    -22.548460    22.037823    -45.586315    -38.434029    87.802307    -34.425488    8.778023    -4.369194    3.558660    -0.915213    1.587994    -2.621650    6.057991    1.268798    -0.844175    -8.232353    -8.315701    0.286358    0.344087    -0.317221    -2.838060    1.118734    -0.494756    12.603393    9.830813    -6.106436    0.000000    0.000000    0.000000    0.000000    0.000000    0.000000    
-1.431276    81.711739    94.648598    -0.137050    -4.162182    -177.858002    -3.103574    -13.354526    0.345867    -1.894183    3.612346    0.768996    4.282037    8.193205    -5.388750    5.863589    3.297968    -5.262305    1.034451    18.686134    -2.927784    -46.866299    46.228901    -36.103218    -2.635722    -2.677413    -16.632292    17.971498    -2.601964    2.913883    0.373527    7.317182    -4.773197    45.612263    -22.521128    22.044769    -45.618046    -38.401695    87.708664    -34.430046    8.774771    -4.378335    3.577404    -0.897616    1.563279    -2.628315    6.045469    1.244849    -0.838702    -8.224997    -8.316936    0.285955    0.349430    -0.316773    -2.817503    1.149622    -0.523826    12.585190    9.744308    -6.966945    0.000000    0.000000    0.000000    0.000000    0.000000    0.000000    
-1.438549    81.714668    94.647827    -0.122462    -4.150021    -177.810516    -3.086146    -13.333797    0.343977    -1.910422    3.596737    0.764760    4.270007    8.181307    -5.389623    5.883978    3.302173    -5.260672    1.025455    18.680258    -2.914013    -46.857243    46.238415    -36.094570    -2.641038    -2.672276    -16.633854    17.967979    -2.598036    2.911975    0.366119    7.315236    -4.762804    45.595650    -22.494202    22.051638    -45.649754    -38.367214    87.612022    -34.435619    8.771157    -4.386537    3.590886    -0.885721    1.537369    -2.633899    6.033303    1.223113    -0.833553    -8.217036    -8.318921    0.285538    0.354695    -0.316307    -2.802077    1.174289    -0.554239    12.567600    9.663638    -7.782915    0.000000    0.000000    0.000000    0.000000    0.000000    0.000000    
-1.445565    81.717422    94.647049    -0.107701    -4.137376    -177.763199    -3.068912    -13.312218    0.342122    -1.926984    3.580250    0.760593    4.257731    8.169573    -5.390623    5.905039    3.307575    -5.259133    1.015371    18.675928    -2.898990    -46.844444    46.247459    -36.088520    -2.646966    -2.666737    -16.635418    17.964451    -2.593751    2.910452    0.358387    7.313230    -4.752189    45.578251    -22.468348    22.058575    -45.680752    -38.329292    87.511948    -34.442532    8.767077    -4.393158    3.605021    -0.873250    1.512231    -2.639828    6.021100    1.200369    -0.828379    -8.209008    -8.320392    0.285184    0.359588    -0.315913    -2.786155    1.199479    -0.583603    12.550054    9.588170    -8.535030    0.000000    0.000000    0.000000    0.000000    0.000000    0.000000    
